<svg width="23" height="23" viewBox="0 0 23 23" fill="none" xmlns="http://www.w3.org/2000/svg">
<g clip-path="url(#clip0)">
<path d="M11.6805 0.835999C5.57225 0.835999 0.620422 5.78782 0.620422 11.8961C0.620422 17.3744 4.60779 21.9115 9.83589 22.79V14.2035H7.16788V11.1136H9.83589V8.83515C9.83589 6.19155 11.4505 4.75094 13.8091 4.75094C14.9388 4.75094 15.9096 4.83511 16.1914 4.87219V7.63545L14.5555 7.63625C13.2731 7.63625 13.0258 8.24553 13.0258 9.13992V11.112H16.0858L15.6867 14.2019H13.0258V22.8639C18.498 22.1979 22.7404 17.5453 22.7404 11.8929C22.7404 5.78782 17.7886 0.835999 11.6805 0.835999Z" fill="#D00025"/>
</g>
<defs>
<clipPath id="clip0">
<rect width="22.12" height="22.12" fill="white" transform="translate(0.619995 0.789978)"/>
</clipPath>
</defs>
</svg>
