<svg width="23" height="23" viewBox="0 0 23 23" fill="none" xmlns="http://www.w3.org/2000/svg">
<g clip-path="url(#clip0)">
<path d="M8.94346 11.06C8.94346 12.2292 9.89123 13.177 11.0604 13.177C12.2296 13.177 13.1774 12.2292 13.1774 11.06C13.1774 9.89082 12.2296 8.94305 11.0604 8.94305C9.89123 8.94305 8.94346 9.89082 8.94346 11.06Z" fill="#D00025"/>
<path d="M6.10969 7.31443C6.21145 7.03867 6.3738 6.78907 6.58476 6.58419C6.78963 6.37324 7.03906 6.21089 7.31499 6.10913C7.53877 6.02222 7.87494 5.91877 8.49413 5.89058C9.16395 5.86004 9.36478 5.85345 11.0605 5.85345C12.7564 5.85345 12.9572 5.85987 13.6269 5.89041C14.2461 5.91877 14.5824 6.02222 14.806 6.10913C15.0819 6.21089 15.3315 6.37324 15.5362 6.58419C15.7472 6.78907 15.9095 7.0385 16.0115 7.31443C16.0984 7.53821 16.2018 7.87455 16.23 8.49374C16.2606 9.16339 16.2672 9.36421 16.2672 11.0601C16.2672 12.7558 16.2606 12.9567 16.23 13.6265C16.2018 14.2457 16.0984 14.5818 16.0115 14.8056C15.9095 15.0815 15.7474 15.331 15.5364 15.5358C15.3315 15.7468 15.0821 15.9091 14.8062 16.0109C14.5824 16.098 14.2461 16.2014 13.6269 16.2296C12.9572 16.2602 12.7566 16.2666 11.0607 16.2666C9.36461 16.2666 9.16378 16.2602 8.4943 16.2296C7.87511 16.2014 7.53877 16.098 7.31499 16.0109C6.76111 15.7973 6.32334 15.3595 6.10969 14.8056C6.02278 14.5818 5.91933 14.2457 5.89097 13.6265C5.86043 12.9567 5.85402 12.7558 5.85402 11.0601C5.85402 9.36421 5.86043 9.16339 5.89097 8.49374C5.91916 7.87455 6.02261 7.53821 6.10969 7.31443ZM11.0605 14.3211C12.8617 14.3211 14.3218 12.8611 14.3218 11.0599C14.3218 9.25874 12.8617 7.79878 11.0605 7.79878C9.25947 7.79878 7.79934 9.25874 7.79934 11.0599C7.79934 12.8611 9.25947 14.3211 11.0605 14.3211ZM7.6704 8.43197C8.0913 8.43197 8.43253 8.09073 8.43253 7.66984C8.43253 7.24895 8.0913 6.90771 7.6704 6.90771C7.24951 6.90771 6.90827 7.24895 6.90827 7.66984C6.90844 8.09073 7.24951 8.43197 7.6704 8.43197Z" fill="#D00025"/>
<path d="M11.06 -6.10352e-05C17.1673 -6.10352e-05 22.12 4.9526 22.12 11.0599C22.12 17.1673 17.1673 22.1199 11.06 22.1199C4.95266 22.1199 -5.72205e-06 17.1673 -5.72205e-06 11.0599C-5.72205e-06 4.9526 4.95266 -6.10352e-05 11.06 -6.10352e-05ZM4.74744 13.6783C4.77816 14.3543 4.88566 14.8159 5.04261 15.2199C5.37254 16.073 6.04691 16.7474 6.90001 17.0773C7.30385 17.2343 7.76559 17.3416 8.44148 17.3725C9.11872 17.4034 9.33508 17.4108 11.0598 17.4108C12.7847 17.4108 13.0009 17.4034 13.6783 17.3725C14.3542 17.3416 14.816 17.2343 15.2198 17.0773C15.6437 16.9178 16.0275 16.6679 16.3448 16.3447C16.6678 16.0276 16.9177 15.6437 17.0772 15.2199C17.2342 14.8161 17.3417 14.3543 17.3724 13.6785C17.4036 13.001 17.4109 12.7847 17.4109 11.0599C17.4109 9.33519 17.4036 9.11884 17.3725 8.44159C17.3418 7.76553 17.2345 7.30397 17.0775 6.89995C16.9181 6.47619 16.668 6.09226 16.3448 5.77515C16.0277 5.45197 15.6437 5.20203 15.22 5.04255C14.816 4.8856 14.3544 4.77827 13.6783 4.74739C13.0011 4.71651 12.7847 4.70908 11.06 4.70908C9.33525 4.70908 9.11889 4.71651 8.44165 4.74756C7.76559 4.77827 7.30402 4.8856 6.90001 5.04239C6.47624 5.20187 6.09231 5.45197 5.77504 5.77515C5.45203 6.09242 5.20192 6.47619 5.04261 6.89995C4.88549 7.30397 4.77816 7.76553 4.74727 8.44159C4.71639 9.11884 4.70914 9.33519 4.70914 11.0599C4.70914 12.7847 4.71639 13.001 4.74744 13.6783Z" fill="#D00025"/>
</g>
<defs>
<clipPath id="clip0">
<rect width="22.12" height="22.12" fill="white" transform="matrix(-1 0 0 1 22.12 0)"/>
</clipPath>
</defs>
</svg>
