<svg width="229" height="74" viewBox="0 0 229 74" fill="none" xmlns="http://www.w3.org/2000/svg">
<path d="M30.2608 46.2909C31.1932 44.7043 44.7043 24.8302 45.7675 23.3581C46.7162 23.7997 47.6485 24.2577 48.5646 24.7484C46.3563 27.7418 43.183 32.7635 39.9934 37.4253C36.4111 42.6432 33.8267 46.34 31.7821 48.1066C31.2913 48.6627 30.637 49.0226 29.901 49.1371C29.6065 49.1698 29.3285 48.9735 29.2958 48.6627C29.2958 48.63 29.2958 48.5973 29.2958 48.5482C29.4266 47.7303 29.7538 46.9452 30.2608 46.2909ZM87.3148 46.3236C88.1981 46.3236 89.6048 45.702 91.6658 43.3957C93.8576 40.9912 95.8042 38.3577 97.4726 35.5769C97.6198 35.3152 97.6852 35.0371 97.7016 34.7427C97.7016 33.8758 97.1291 33.3687 96.1477 33.3687C94.4302 33.3687 92.729 34.5464 90.4063 37.4744C88.3943 39.9934 86.3497 43.7719 86.3497 45.4076C86.3333 45.8329 86.4478 46.3236 87.3148 46.3236ZM182.236 33.8431C182.236 33.4014 182.039 33.0906 181.532 33.0906C179.749 33.0906 177.263 35.7896 174.711 40.4677C178.146 39.9116 182.236 36.3784 182.236 33.8431ZM142.782 33.8431C142.815 33.4669 142.553 33.1397 142.177 33.107C142.128 33.107 142.095 33.107 142.046 33.107C139.985 33.107 137.27 36.7874 135.225 40.5168C138.66 39.9443 142.766 36.5747 142.782 33.8431ZM46.847 37.1145V38.2922C41.2529 38.3904 37.7851 42.1525 37.7851 46.0455C37.7851 48.1393 38.9138 49.5951 41.9399 49.5951C48.9571 49.5951 53.7825 42.0707 53.7825 37.1472C53.7825 34.9063 52.981 32.9107 49.4315 32.9107H47.7467C47.305 32.8943 46.8798 32.9271 46.4545 33.0088L47.5013 31.4549C49.9058 31.6512 52.3431 31.3568 54.6331 30.588C57.8554 28.985 60.0473 25.8607 60.4562 22.2949C60.4562 20.7736 59.851 19.5469 57.9045 19.5469C54.9439 19.5469 52.294 22.393 50.5928 24.5685C51.7215 25.2392 52.8011 25.9916 53.8479 26.7931L53.1446 27.7091C52.1141 26.8913 51.0181 26.1552 49.8731 25.5009C48.0248 27.9708 43.7882 34.5137 40.8767 38.7993C42.6596 37.687 44.7206 37.0981 46.847 37.1145ZM43.5756 19.3342L48.7936 19.1052C48.3192 19.7759 47.4523 20.9536 46.4381 22.3767C47.3868 22.8183 48.3356 23.309 49.2679 23.7997C52.4903 19.7104 55.5 17.8457 59.4094 17.8457C63.6295 17.8457 65.2162 20.2502 65.2162 22.7202C65.069 25.1083 64.0548 27.3656 62.37 29.0668C60.3254 30.9151 57.8064 32.1583 55.1074 32.6326C57.3647 33.4669 58.8369 35.6751 58.7224 38.0796C58.5261 41.1711 57.2175 44.099 55.0256 46.2909C59.4584 43.3793 63.4332 39.8462 66.8683 35.8059C67.4244 35.1026 68.4549 33.6959 68.962 32.9598L73.5256 32.6817C73.5256 32.6817 67.7188 41.4655 66.4593 43.6247C65.985 44.2626 65.6742 45.015 65.576 45.8002C65.576 46.0783 65.756 46.3727 66.2631 46.3727C68.0296 46.3727 71.3501 43.3957 73.7219 40.3205C74.8015 38.9138 78.7109 32.9925 78.7109 32.9925L83.34 32.6981C79.5942 38.4558 78.3674 40.3859 78.3674 40.3859C77.386 41.8417 76.5517 43.3793 75.8647 44.9987C75.7993 45.2277 75.7502 45.473 75.7502 45.702C75.7011 46.0292 75.9302 46.3236 76.2409 46.3727C76.29 46.389 76.3554 46.389 76.4045 46.3727C79.0871 46.3727 83.9125 40.0097 85.4501 38.0796C88.2635 34.5301 91.6822 32.0601 95.3625 32.0601C96.7038 31.9129 97.996 32.5999 98.634 33.794C100.09 31.3895 102.838 26.8585 104.686 23.7997L47.3541 1.78294L45.1459 0.93236L43.8537 2.91158L33.6958 18.5654C36.7219 18.8926 39.6826 19.5959 42.5287 20.6919C42.9213 20.1684 43.2485 19.7431 43.5756 19.3342ZM18.0747 27.8727C18.958 30.4244 21.8369 32.0438 26.7113 32.0438C30.1136 32.0765 33.4669 31.1605 36.3621 29.3939C32.7308 34.5955 27.9218 41.7272 26.1715 44.6061C25.37 45.6693 24.863 46.9288 24.6994 48.2538C24.6994 50.0694 26.4987 51.0836 28.5597 51.0836C31.046 51.0836 33.0579 49.3006 35.5933 46.0783L36.4766 44.8842C36.3948 45.2931 36.3621 45.702 36.3457 46.111C36.3457 48.8099 37.9814 51.0836 43.1503 51.0836C50.1839 51.0836 56.6941 47.3868 63.057 41.3347L64.3983 40.0588C62.37 42.8395 61.5522 44.7697 61.5522 45.9474C61.5522 47.4196 62.5827 48.3192 64.2511 48.3192C66.8028 48.3192 69.5508 46.3236 71.7427 44.0663L72.7405 43.0358C72.168 43.9845 71.8409 45.0314 71.7427 46.1273C71.7427 47.3378 72.4788 48.3356 74.2617 48.3356C77.4023 48.3356 80.3793 45.5221 82.882 42.8395C82.473 43.7228 82.244 44.6552 82.1786 45.6203C82.1132 47.0597 83.2418 48.2701 84.6649 48.3192C84.8121 48.3192 84.9757 48.3192 85.1229 48.3028C87.4783 48.3028 89.8338 47.027 92.5491 43.9682C92.8926 43.5756 93.4324 42.9704 93.9231 42.3979C93.3179 43.4611 92.958 44.6552 92.8599 45.882C92.8599 47.3868 93.7759 48.3028 95.5425 48.3028C99.37 48.3028 102.805 44.2135 104.866 41.9399C103.983 43.1012 103.41 44.4753 103.23 45.931C103.23 47.5995 104.441 48.3028 105.913 48.3028C109.283 48.3028 112.374 45.2931 114.729 42.3324C114.075 43.3957 113.666 44.5898 113.552 45.8329C113.552 47.4359 114.648 48.2865 116.463 48.2865C118.753 48.172 120.929 47.2069 122.532 45.5712C124.495 43.7882 126.212 41.7436 127.635 39.5027C128.257 40.4841 129.206 41.1875 130.334 41.4819C129.86 42.496 129.598 43.592 129.549 44.7043C129.549 46.8634 130.907 48.3028 133.818 48.3028C138.742 48.3028 142.831 44.0663 145.383 41.351C144.451 42.676 143.862 44.2135 143.714 45.8329C143.714 47.4032 144.729 48.3192 146.577 48.3192C149.783 48.3192 153.202 45.0314 156.146 42.1689C157.176 41.1711 159.565 38.7666 162.95 35.1353C162.721 36.2149 162.378 37.9651 162.214 38.832C161.053 45.3422 159.27 47.3541 157.078 47.3541C155.148 47.3541 155.622 45.2604 154.199 45.2604C153.643 45.2767 153.202 45.7348 153.218 46.2909V46.3073C153.218 47.4195 154.527 48.401 156.833 48.401C161.2 48.401 164.308 45.702 166.778 43.4938C168.005 42.3979 169.232 41.2692 170.589 40.0588C169.657 41.4982 169.134 43.1667 169.052 44.8842C169.052 46.8307 170.328 48.3192 173.108 48.3192C178.441 48.3192 182.53 43.3793 184.755 40.5332C187.781 36.6401 190.136 33.7122 191.51 33.7122C191.756 33.6795 191.985 33.8431 192.017 34.0884C192.017 34.1211 192.017 34.1539 192.017 34.2029C191.805 35.1844 191.379 36.1167 190.774 36.9346C188.19 41.4328 184.477 46.9779 183.888 47.9593L188.271 47.7958C191.265 43.134 194.749 38.7829 198.658 34.8409C197.988 35.7405 197.595 36.8037 197.546 37.916C197.546 39.5517 198.593 40.5495 200.703 40.5495C201.668 40.5659 202.633 40.3205 203.5 39.8625L203.14 39.0119C202.666 39.29 202.126 39.4536 201.57 39.4536C200.588 39.4536 200.31 38.7829 200.31 38.0305C200.49 36.0676 201.75 34.3501 203.582 33.5977C203.565 32.7962 202.813 32.2237 201.603 32.2237C199.934 32.2237 197.677 33.5159 192.999 39.519C194.389 36.9673 195.109 35.7405 195.109 34.2684C195.109 33.1234 194.34 32.2728 192.721 32.2728C189.711 32.2728 187.797 34.9717 183.822 40.0097C181.32 43.183 178.032 46.5363 174.826 46.5363C173.697 46.5363 173.141 45.9638 173.141 44.9987C173.223 43.7882 173.566 42.6269 174.155 41.5637C178.294 41.122 184.215 37.7688 184.215 34.1538C184.215 32.6326 183.184 32.0111 181.434 32.0111C178.555 32.2237 175.873 33.4996 173.91 35.6096C171.211 38.145 166.68 42.3979 164.423 44.2135C165.404 42.725 165.878 40.9748 165.78 39.2082C165.78 37.4089 165.584 36.0186 165.584 34.252C165.584 33.9903 165.6 33.7449 165.633 33.4996C166.549 33.4014 167.236 32.649 167.285 31.733C167.318 31.0623 166.794 30.4898 166.124 30.4571C166.058 30.4571 165.993 30.4571 165.928 30.4571C164.832 30.4571 163.883 31.275 163.425 33.107C162.084 34.5955 159.908 36.8528 157.978 38.832C153.332 43.5756 150.143 46.4381 148.409 46.4381C148.049 46.4872 147.722 46.2418 147.673 45.882C147.673 45.8165 147.657 45.7675 147.673 45.702C148.213 43.821 149.08 42.0544 150.225 40.4677C150.225 40.4677 151.419 38.5212 155.115 32.6981L150.748 32.9434C150.421 33.4832 149.227 35.1353 148.981 35.4297C145.923 39.4536 140.263 46.5035 135.634 46.5035C134.211 46.5035 133.753 45.7838 133.753 44.786C133.851 43.6574 134.178 42.5615 134.718 41.5637C140.525 40.7622 144.794 36.8855 144.794 34.1375C144.794 32.6817 143.927 31.9947 142.046 31.9947C136.795 31.9947 132.608 37.2126 130.907 40.4841C129.794 40.2224 128.862 39.4699 128.388 38.4231C129.582 36.6565 130.432 34.6936 130.907 32.6163C130.907 32.1746 130.4 31.8475 129.713 31.8475C129.009 31.8311 128.355 32.1746 127.979 32.7635C127.161 34.2683 126.801 35.9695 126.916 37.6706C125.869 40.7131 121.42 46.4545 118.246 46.4545C117.641 46.4545 117.412 46.16 117.412 45.702C117.412 44.737 118.541 42.5615 120.602 39.2082C120.863 38.7666 123.333 34.71 124.56 32.7471L120.225 32.9761C119.195 34.5628 118.328 35.9368 117.232 37.4744C112.652 43.9518 109.528 46.4545 107.859 46.4545C107.385 46.4545 107.14 46.2255 107.14 45.8002C107.238 45.1623 107.467 44.557 107.81 44.0173C109.217 41.3837 112.603 36.3948 115.057 32.7308L110.656 32.9434C110.149 33.6958 108.71 35.7078 108.154 36.4111C102.004 44.1645 99.0429 46.389 97.538 46.389C96.9982 46.389 96.8183 46.0783 96.8183 45.6203C96.8183 44.3607 98.1923 41.9889 100.924 37.3762L111.507 20.0212L112.636 21.4116L111.883 22.6547L228.396 0L203.173 38.9792L204.318 39.6989L204.939 41.0566C203.844 41.7272 202.6 42.1035 201.325 42.1525H201.128L180.649 73.8201L91.1424 56.0725L0 70.4996L23.996 33.5323C20.9699 32.9271 18.4019 31.2586 18.0747 27.8727ZM159.646 25.6154C159.728 24.6667 159.008 23.8488 158.076 23.767C157.994 23.767 157.929 23.767 157.847 23.767C156.309 23.8488 155.115 25.1247 155.132 26.6623C155.066 27.5946 155.77 28.3961 156.686 28.4615C156.784 28.4615 156.882 28.4615 156.996 28.4615C158.485 28.347 159.663 27.1039 159.646 25.6154ZM20.9536 28.985C20.5119 27.4801 20.7736 25.8444 21.6569 24.5358C23.1291 22.4748 26.3678 21.2317 30.817 21.2317C31.2095 21.2317 31.5858 21.248 31.962 21.2644L25.7626 30.8006C26.1225 30.8333 26.515 30.8333 26.9076 30.8333C31.4876 30.9315 35.8714 29.034 38.9629 25.6645C38.9629 25.6645 41.7763 21.7715 41.809 21.706C38.1941 20.3157 34.3501 19.6123 30.4735 19.5959C23.8488 19.5959 19.8249 22.2785 19.8086 26.0898C19.7922 27.1693 20.2011 28.2162 20.9536 28.985ZM188.353 70.8758C188.026 70.5323 187.552 70.336 187.061 70.336C186.047 70.336 185.229 71.1539 185.229 72.168C185.229 73.1822 186.047 74 187.061 74C188.075 74 188.877 73.1658 188.893 72.168C188.893 71.6773 188.697 71.2029 188.353 70.8758ZM188.124 73.2639C187.552 73.8528 186.636 73.8692 186.047 73.2967C186.031 73.2803 186.014 73.2803 186.014 73.2639C185.425 72.6587 185.425 71.6936 186.014 71.0884C186.292 70.794 186.685 70.6304 187.077 70.6304C187.47 70.6304 187.863 70.794 188.124 71.0884C188.713 71.6773 188.713 72.6424 188.124 73.2639ZM187.584 72.2989C187.83 72.2171 187.977 71.9881 187.977 71.7427C187.977 71.5628 187.912 71.3992 187.781 71.2847C187.601 71.1538 187.388 71.0884 187.176 71.1048H186.194V73.2149H186.652V72.3643H187.159L187.503 73.2149H187.977L187.584 72.2989ZM186.652 71.4483H187.143C187.388 71.4483 187.503 71.5464 187.503 71.7427C187.503 71.939 187.372 72.0371 187.11 72.0371H186.652V71.4483Z" fill="#CA151E"/>
<path d="M155.138 26.6542C155.122 25.1166 156.316 23.8407 157.854 23.759C158.802 23.7099 159.604 24.446 159.653 25.3947C159.653 25.4765 159.653 25.5419 159.653 25.6237C159.669 27.1122 158.508 28.3553 157.003 28.4535C156.087 28.568 155.253 27.8973 155.138 26.9813C155.122 26.8505 155.122 26.7523 155.138 26.6542ZM174.718 40.476C178.153 39.9035 182.242 36.3704 182.242 33.835C182.242 33.3933 182.046 33.0826 181.539 33.0826C179.772 33.0989 177.27 35.7979 174.718 40.476ZM135.215 40.4924C138.65 39.9362 142.772 36.583 142.772 33.835C142.805 33.4588 142.543 33.1316 142.167 33.0989C142.118 33.0989 142.085 33.0989 142.036 33.0989C139.975 33.0989 137.26 36.7629 135.215 40.4924ZM97.4791 35.5689C97.6263 35.3071 97.6918 35.0291 97.7081 34.7346C97.7081 33.8677 97.1356 33.3606 96.1542 33.3606C94.4367 33.3606 92.7355 34.5384 90.4128 37.4663C88.4009 39.9853 86.3562 43.7638 86.3562 45.3995C86.3562 45.8248 86.4707 46.3155 87.3377 46.3155C88.2046 46.3155 89.6277 45.694 91.6887 43.3876C93.8478 40.9831 95.7943 38.3659 97.4791 35.5689ZM82.9212 42.8151C80.4186 45.4977 77.4252 48.3111 74.301 48.3111C72.518 48.3111 71.782 47.297 71.782 46.1029C71.8637 45.007 72.2072 43.9437 72.7797 43.0114L71.7656 44.0419C69.5737 46.2992 66.8094 48.2948 64.274 48.2948C62.6219 48.2948 61.5751 47.4115 61.5751 45.923C61.5751 44.7453 62.3929 42.8151 64.4212 40.0344L63.0799 41.3102C56.7006 47.3788 50.1904 51.0591 43.1732 51.0591C38.0207 51.0591 36.3686 48.7855 36.3686 46.0865C36.3686 45.6776 36.4177 45.2687 36.4995 44.8598L35.6162 46.0538C33.0808 49.2762 31.0689 51.0591 28.5826 51.0591C26.5216 51.0591 24.7223 50.045 24.7223 48.2293C24.8858 46.9044 25.3929 45.6449 26.1944 44.5817C27.9446 41.7028 32.7537 34.5547 36.385 29.3695C33.4897 31.1524 30.1365 32.0684 26.7342 32.0193C20.7638 32.0357 17.7868 29.6148 17.7868 26.0653C17.7868 21.4526 22.5304 18.3938 30.2347 18.3938C34.4385 18.3938 38.6095 19.1789 42.5516 20.7002C42.9278 20.1767 43.255 19.7514 43.5821 19.3262L48.8001 19.0972C48.3257 19.7678 47.4588 20.9455 46.4446 22.3686C47.3934 22.8102 48.3421 23.301 49.2744 23.7917C52.4968 19.7024 55.5065 17.8376 59.4159 17.8376C63.6361 17.8376 65.2227 20.2422 65.2227 22.7121C65.0755 25.1002 64.0614 27.3575 62.3766 29.0587C60.3483 30.9071 57.8293 32.1338 55.114 32.6246C57.3713 33.4588 58.8434 35.667 58.7289 38.0715C58.5326 41.163 57.224 44.091 55.0322 46.2828C59.465 43.3712 63.4398 39.8381 66.8748 35.7979C67.4309 35.0945 68.4614 33.6878 68.9685 32.9517L73.5158 32.6736C73.5158 32.6736 67.709 41.4575 66.4495 43.6166C65.9751 44.2545 65.6644 45.007 65.5662 45.7921C65.5662 46.0702 65.7461 46.3646 66.2532 46.3646C68.0198 46.3646 71.3403 43.3876 73.7121 40.3124C74.7917 38.9057 78.7011 32.9844 78.7011 32.9844L83.3301 32.69C79.5843 38.4477 78.3576 40.3779 78.3576 40.3779C77.3761 41.8337 76.5419 43.3712 75.8549 44.9906C75.7895 45.2196 75.7404 45.465 75.7404 45.694C75.6913 46.0211 75.9203 46.3155 76.2311 46.3646C76.2802 46.381 76.3456 46.381 76.3947 46.3646C79.0773 46.3646 83.9026 40.018 85.4402 38.0715C88.2537 34.522 91.6723 32.0521 95.3691 32.0521C96.7103 31.9048 98.0026 32.5918 98.6405 33.7859C100.963 29.9583 106.574 20.6838 106.574 20.6838L111.448 19.9968C107.997 25.6073 101.389 36.4849 100.865 37.3518C98.1334 41.9645 96.7594 44.3363 96.7594 45.5958C96.7594 46.0538 96.9393 46.3646 97.4791 46.3646C98.984 46.3646 101.945 44.14 108.095 36.3867C108.651 35.6834 110.091 33.6714 110.598 32.919L114.998 32.7063C112.544 36.3867 109.158 41.3593 107.751 43.9928C107.392 44.5326 107.163 45.1378 107.081 45.7758C107.081 46.201 107.326 46.43 107.801 46.43C109.469 46.43 112.593 43.911 117.173 37.4499C118.269 35.9124 119.136 34.5384 120.167 32.9517L124.501 32.7227C123.274 34.6856 120.805 38.7585 120.543 39.1838C118.482 42.537 117.353 44.7125 117.353 45.6776C117.353 46.152 117.582 46.43 118.187 46.43C121.361 46.43 125.793 40.6887 126.857 37.6462C126.726 35.9451 127.102 34.2439 127.92 32.7554C128.296 32.1666 128.95 31.8231 129.654 31.8394C130.341 31.8394 130.848 32.1666 130.848 32.6082C130.373 34.6856 129.523 36.6648 128.312 38.4477C128.787 39.4946 129.719 40.247 130.831 40.5087C132.533 37.2373 136.72 32.0193 141.971 32.0193C143.852 32.0193 144.719 32.7227 144.719 34.1621C144.719 36.9101 140.45 40.7868 134.643 41.5883C134.103 42.5861 133.776 43.682 133.678 44.827C133.678 45.8248 134.136 46.5445 135.559 46.5445C140.204 46.5445 145.847 39.4946 148.906 35.4707C149.152 35.1599 150.329 33.5242 150.673 32.9844L155.04 32.7391C151.36 38.5622 150.149 40.5087 150.149 40.5087C149.004 42.0954 148.137 43.862 147.598 45.743C147.549 46.1029 147.81 46.43 148.154 46.4791C148.219 46.4791 148.268 46.4791 148.334 46.4791C150.068 46.4791 153.257 43.6166 157.903 38.873C159.849 36.8774 162.008 34.6201 163.35 33.148C163.808 31.316 164.756 30.4981 165.852 30.4981C166.523 30.4163 167.128 30.9071 167.194 31.5777C167.194 31.6431 167.21 31.7086 167.194 31.774C167.161 32.69 166.457 33.4424 165.541 33.5406C165.509 33.7859 165.492 34.0476 165.492 34.293C165.492 36.0596 165.689 37.4336 165.689 39.2329C165.77 40.9995 165.296 42.766 164.331 44.2382C166.588 42.4225 171.119 38.1533 173.818 35.6343C175.781 33.5242 178.464 32.2483 181.343 32.0357C183.093 32.0357 184.123 32.6573 184.123 34.1785C184.123 37.7934 178.202 41.1467 174.064 41.5883C173.475 42.6515 173.131 43.8129 173.049 45.0233C173.049 45.9884 173.622 46.5773 174.734 46.5773C177.94 46.5773 181.228 43.224 183.731 40.0507C187.705 35.0127 189.619 32.3138 192.629 32.3138C194.248 32.3138 195.017 33.1643 195.017 34.3094C195.017 35.7815 194.297 36.9919 192.907 39.56C197.602 33.5569 199.859 32.2647 201.511 32.2647C202.721 32.2647 203.474 32.8372 203.49 33.6387C201.658 34.3911 200.399 36.0923 200.219 38.0715C200.219 38.8239 200.513 39.4946 201.478 39.4946C202.034 39.4782 202.574 39.331 203.049 39.0529L203.408 39.9035C202.541 40.3615 201.593 40.5905 200.611 40.5742C198.501 40.5742 197.454 39.56 197.454 37.9407C197.52 36.8284 197.912 35.7488 198.567 34.8655C194.657 38.8076 191.19 43.1586 188.18 47.8204L183.796 47.984C184.385 46.9862 188.114 41.4575 190.682 36.9592C191.288 36.1414 191.713 35.209 191.926 34.2276C191.958 33.9822 191.778 33.7696 191.533 33.7368C191.5 33.7368 191.468 33.7368 191.419 33.7368C190.028 33.7368 187.689 36.6648 184.663 40.5578C182.438 43.4203 178.349 48.3438 173.017 48.3438C170.236 48.3438 168.96 46.8717 168.96 44.9088C169.042 43.1913 169.565 41.5229 170.498 40.0834C169.14 41.2939 167.913 42.4225 166.686 43.5185C164.233 45.7267 161.125 48.4256 156.741 48.4256C154.451 48.4256 153.126 47.4442 153.126 46.3319C153.094 45.7758 153.535 45.3014 154.091 45.2687H154.108C155.547 45.2687 155.056 47.3624 156.987 47.3624C159.162 47.3624 160.945 45.3341 162.123 38.8403C162.286 37.9734 162.63 36.2395 162.859 35.1436C159.473 38.7585 157.085 41.163 156.054 42.1772C153.11 45.0397 149.691 48.3275 146.485 48.3275C144.637 48.3275 143.623 47.4115 143.623 45.8412C143.786 44.2218 144.359 42.6842 145.291 41.3593C142.756 44.0746 138.65 48.2948 133.727 48.2948C130.815 48.2948 129.457 46.8553 129.457 44.6962C129.49 43.5839 129.768 42.488 130.243 41.4738C129.13 41.1794 128.165 40.476 127.544 39.4946C126.121 41.7355 124.403 43.7802 122.44 45.5631C120.821 47.1988 118.662 48.1639 116.372 48.2784C114.54 48.2784 113.46 47.4115 113.46 45.8248C113.575 44.5817 113.984 43.3876 114.638 42.3407C112.282 45.3014 109.175 48.3111 105.821 48.3111C104.349 48.3111 103.139 47.6078 103.139 45.9393C103.319 44.4835 103.891 43.1095 104.774 41.9482C102.713 44.2218 99.2621 48.3111 95.4508 48.3111C93.6843 48.3111 92.7683 47.3951 92.7683 45.8903C92.85 44.6635 93.2263 43.4694 93.8315 42.4062C93.3571 42.995 92.8173 43.6002 92.4575 43.9765C89.7422 47.0353 87.3867 48.3111 85.0313 48.3111C83.6082 48.5074 82.2996 47.5096 82.1034 46.0865C82.087 45.9393 82.0706 45.7921 82.087 45.6285C82.1524 44.6635 82.3978 43.7311 82.7904 42.8478L82.9212 42.8151ZM38.9694 25.6564C38.9694 25.6564 41.7828 21.7634 41.8156 21.6979C38.2006 20.3076 34.3567 19.6042 30.48 19.5879C23.8553 19.5879 19.8315 22.2704 19.8151 26.0817C19.8151 29.026 22.3668 30.8253 26.9141 30.8089C31.4942 30.9234 35.8942 29.0423 38.9694 25.6564ZM39.9835 37.4172C43.1896 32.7391 46.3465 27.7338 48.5547 24.7404C47.6224 24.2497 46.69 23.7917 45.7576 23.35C44.7108 24.8222 31.1834 44.6962 30.251 46.2828C29.7439 46.9535 29.4168 47.7386 29.2859 48.5565C29.2696 48.8509 29.4986 49.1126 29.793 49.129C29.8257 49.129 29.8584 49.129 29.9075 49.129C30.6272 49.0145 31.2979 48.6383 31.7886 48.0985C33.8169 46.3319 36.4013 42.6515 39.9835 37.4172ZM46.4446 33.0008L47.4915 31.4468C49.896 31.6431 52.3332 31.3487 54.6232 30.5799C57.8456 28.9769 60.0375 25.8527 60.4464 22.2868C60.4464 20.7656 59.8412 19.5388 57.8947 19.5388C54.934 19.5388 52.2842 22.3849 50.583 24.5605C51.7117 25.2311 52.7912 25.9835 53.8381 26.785L53.1184 27.701C52.0879 26.8832 50.9919 26.1471 49.8469 25.4928C47.9986 27.9628 43.7621 34.5056 40.8505 38.7912C42.6498 37.6953 44.7271 37.1064 46.8372 37.1064V38.2842C41.2431 38.3659 37.7753 42.1445 37.7753 46.0375C37.7753 48.1312 38.904 49.587 41.9301 49.587C48.9473 49.587 53.7727 42.0627 53.7727 37.1228C53.7727 34.8819 52.9712 32.8863 49.4217 32.8863H47.7369C47.3116 32.9026 46.8699 32.9353 46.4446 33.0008Z" fill="white"/>
</svg>
