<svg width="22" height="23" viewBox="0 0 22 23" fill="none" xmlns="http://www.w3.org/2000/svg">
<g clip-path="url(#clip0)">
<path d="M10.6852 0.789917C4.79599 0.789917 0.0202026 5.74258 0.0202026 11.8499C0.0202026 17.9573 4.79599 22.9099 10.6852 22.9099C16.5744 22.9099 21.3502 17.9573 21.3502 11.8499C21.3502 5.74258 16.5744 0.789917 10.6852 0.789917ZM15.5547 9.41333C15.5594 9.52218 15.5617 9.63154 15.5617 9.7414C15.5617 13.0959 13.0995 16.9641 8.59682 16.9643H8.59699H8.59682C7.21439 16.9643 5.92797 16.544 4.84464 15.8239C5.03618 15.8474 5.23114 15.859 5.42854 15.859C6.57549 15.859 7.63099 15.4533 8.46891 14.7724C7.39731 14.7518 6.4938 14.0178 6.182 13.0091C6.33123 13.0388 6.48469 13.055 6.64205 13.055C6.86549 13.055 7.08192 13.0238 7.28762 12.9656C6.16752 12.7331 5.32374 11.7065 5.32374 10.4772C5.32374 10.4657 5.32374 10.4554 5.32406 10.4448C5.65392 10.635 6.03114 10.7494 6.43277 10.7622C5.77549 10.3074 5.34343 9.52994 5.34343 8.64917C5.34343 8.18406 5.46466 7.74832 5.67492 7.37316C6.88209 8.90924 8.68617 9.91945 10.7207 10.0256C10.6787 9.83962 10.657 9.64588 10.657 9.44674C10.657 8.04534 11.7534 6.90839 13.1052 6.90839C13.8094 6.90839 14.4454 7.21706 14.8921 7.71052C15.4498 7.59643 15.9734 7.38514 16.4465 7.09437C16.2634 7.68689 15.8755 8.18406 15.37 8.49847C15.8652 8.43704 16.3372 8.30085 16.7757 8.09867C16.4481 8.60783 16.0327 9.05505 15.5547 9.41333Z" fill="#D00025"/>
</g>
<defs>
<clipPath id="clip0">
<rect width="21.33" height="22.12" fill="white" transform="translate(0.0200195 0.789978)"/>
</clipPath>
</defs>
</svg>
